<svg width="288" height="288" xmlns="http://www.w3.org/2000/svg" style="vector-effect: non-scaling-stroke;" stroke="null" version="1.1">
 <g stroke="null">
  <title stroke="null">Layer 1</title>
  <ellipse ry="64" rx="55" id="svg_7" cy="112" cx="148" stroke="#000" fill="#007bff"/>
  <g stroke="null" id="SvgjsG1008">
   <svg stroke="null" id="svg_1" height="288" width="288" xmlns:xlink="http://www.w3.org/1999/xlink" xmlns:svgjs="http://svgjs.com/svgjs" xmlns="http://www.w3.org/2000/svg">
    <g stroke="null" id="svg_2">
     <svg stroke="null" id="svg_5" viewBox="0 0 384 512" height="288" width="288" xmlns="http://www.w3.org/2000/svg">
      <path cy="136.5" cx="4" ry="88.5" rx="89" stroke="null" id="svg_6" class="color000 svgShape colorb98917" d="m172.268,501.67c-145.298,-210.639 -172.268,-232.257 -172.268,-309.67c0,-106.039 85.961,-192 192,-192s192,85.961 192,192c0,77.413 -26.97,99.031 -172.268,309.67c-9.535,13.774 -29.93,13.773 -39.464,0zm19.732,-229.67c44.183,0 80,-35.817 80,-80s-35.817,-80 -80,-80s-80,35.817 -80,80s35.817,80 80,80z" fill="#d3dc1e"/>
     </svg>
    </g>
   </svg>
  </g>
 </g>

</svg>